<svg version="1.2" xmlns="http://www.w3.org/2000/svg" viewBox="0 0 456 456" width="456" height="456">
	<title>appiconfg</title>
	<style>
		.s0 { fill: #e69f00 } 
	</style>
	<path class="s0" d="m117.8 240.7h-27.8l-4.6 13.3h-14.7l25.1-69.9h16.3l25.1 69.9h-14.8zm-3.8-11.2l-10.1-29.2-10.1 29.2zm46.5-22.8q2.7-4 7.4-6.5 4.8-2.5 10.9-2.5 7.1 0 12.8 3.5 5.8 3.5 9.1 10 3.4 6.4 3.4 14.9 0 8.5-3.4 15.1-3.3 6.5-9.1 10.1-5.7 3.6-12.8 3.6-6.2 0-10.9-2.4-4.6-2.5-7.4-6.4v7.9h-14v-74h14zm29.3 19.4q0-5-2.1-8.6-2-3.7-5.4-5.6-3.3-1.9-7.2-1.9-3.8 0-7.2 2-3.3 1.9-5.4 5.6-2 3.7-2 8.7 0 5 2 8.7 2.1 3.7 5.4 5.7 3.4 1.9 7.2 1.9 3.9 0 7.2-2 3.4-2 5.4-5.7 2.1-3.7 2.1-8.8zm31.6-34.1q-3.7 0-6.2-2.3-2.4-2.4-2.4-5.9 0-3.5 2.4-5.8 2.5-2.4 6.2-2.4 3.7 0 6.1 2.4 2.5 2.3 2.5 5.8 0 3.5-2.5 5.9-2.4 2.3-6.1 2.3zm6.9 6.6v55.4h-14v-55.4zm27.9-18.6v74h-14v-74zm20.9 12q-3.7 0-6.2-2.3-2.4-2.4-2.4-5.9 0-3.5 2.4-5.8 2.5-2.4 6.2-2.4 3.7 0 6.1 2.4 2.5 2.3 2.5 5.8 0 3.5-2.5 5.9-2.4 2.3-6.1 2.3zm6.9 6.6v55.4h-14v-55.4zm39.2 11.5h-9.7v43.9h-14.2v-43.9h-6.3v-11.5h6.3v-2.8q0-10.2 5.8-15 5.8-4.8 17.5-4.5v11.8q-5.1-0.1-7.1 1.7-2 1.8-2 6.5v2.3h9.7zm62.1-11.5l-34.3 81.6h-14.9l12-27.6-22.2-54h15.7l14.3 38.7 14.5-38.7z"/>
</svg>