<svg version="1.2" xmlns="http://www.w3.org/2000/svg" viewBox="0 0 456 456" width="456" height="456">
	<title>appicon</title>
	<style>
		.s0 { fill: #7089d3 } 
		.s1 { fill: #e69f00 } 
	</style>
	<path fill-rule="evenodd" class="s0" d="m0 0h456v456h-456z"/>
	<path class="s1" d="m143.1 237.9h-21.3l-3.5 10.2h-11.3l19.3-53.6h12.5l19.2 53.6h-11.3zm-3-8.6l-7.7-22.4-7.8 22.4zm35.7-17.4q2.1-3.1 5.7-5 3.7-1.9 8.3-1.9 5.5 0 9.9 2.6 4.4 2.7 6.9 7.7 2.7 4.9 2.7 11.4 0 6.6-2.7 11.6-2.5 5-6.9 7.8-4.4 2.7-9.9 2.7-4.7 0-8.3-1.8-3.5-1.9-5.7-4.9v6h-10.7v-56.7h10.7zm22.5 14.9q0-3.9-1.6-6.6-1.6-2.9-4.2-4.3-2.5-1.5-5.5-1.5-2.9 0-5.5 1.5-2.5 1.5-4.2 4.3-1.5 2.9-1.5 6.7 0 3.8 1.5 6.7 1.7 2.8 4.2 4.4 2.6 1.4 5.5 1.4 3 0 5.5-1.5 2.6-1.6 4.2-4.4 1.6-2.8 1.6-6.7zm24.2-26.2q-2.8 0-4.7-1.8-1.9-1.8-1.9-4.5 0-2.7 1.9-4.4 1.9-1.9 4.7-1.9 2.9 0 4.7 1.9 1.9 1.7 1.9 4.4 0 2.7-1.9 4.5-1.8 1.8-4.7 1.8zm5.3 5.1v42.5h-10.7v-42.5zm21.4-14.3v56.8h-10.8v-56.8zm16.1 9.2q-2.9 0-4.8-1.8-1.8-1.8-1.8-4.5 0-2.7 1.8-4.4 1.9-1.9 4.8-1.9 2.8 0 4.6 1.9 2 1.7 2 4.4 0 2.7-2 4.5-1.8 1.8-4.6 1.8zm5.3 5.1v42.5h-10.8v-42.5zm30.1 8.8h-7.4v33.7h-10.9v-33.7h-4.9v-8.8h4.9v-2.2q0-7.8 4.4-11.5 4.5-3.7 13.4-3.4v9q-3.9-0.1-5.4 1.3-1.5 1.4-1.5 5v1.8h7.4zm47.6-8.9l-26.3 62.6h-11.4l9.2-21.1-17-41.5h12l11 29.7 11.1-29.7z"/>
</svg>