<svg version="1.2" xmlns="http://www.w3.org/2000/svg" viewBox="0 0 456 456" width="456" height="456">
	<title>splash</title>
	<style>
		.s0 { fill: #e69f00 } 
	</style>
	<path class="s0" d="m68.3 246.3h-40.3l-6.7 19.3h-21.3l36.4-101.3h23.6l36.4 101.3h-21.5zm-5.5-16.2l-14.6-42.4-14.7 42.4zm67.6-33.1q3.9-5.8 10.7-9.4 6.9-3.6 15.8-3.6 10.3 0 18.5 5 8.4 5.1 13.2 14.5 5 9.3 5 21.6 0 12.4-5 21.9-4.8 9.4-13.2 14.7-8.2 5.2-18.5 5.2-9 0-15.8-3.5-6.7-3.6-10.7-9.3v11.5h-20.3v-107.3h20.3zm42.4 28.1q0-7.2-3-12.4-2.9-5.4-7.8-8.1-4.8-2.8-10.5-2.8-5.5 0-10.4 2.9-4.8 2.8-7.8 8.1-2.9 5.4-2.9 12.6 0 7.3 2.9 12.6 3 5.4 7.8 8.3 4.9 2.7 10.4 2.7 5.7 0 10.5-2.9 4.9-2.8 7.8-8.2 3-5.4 3-12.8zm45.8-49.4q-5.4 0-9-3.3-3.5-3.5-3.5-8.6 0-5 3.5-8.4 3.6-3.5 9-3.5 5.4 0 8.8 3.5 3.7 3.4 3.7 8.4 0 5.1-3.7 8.6-3.4 3.3-8.8 3.3zm10 9.6v80.3h-20.3v-80.3zm40.3-27v107.3h-20.3v-107.3zm30.4 17.4q-5.4 0-9-3.3-3.5-3.5-3.5-8.6 0-5 3.5-8.4 3.6-3.5 9-3.5 5.3 0 8.8 3.5 3.6 3.4 3.6 8.4 0 5.1-3.6 8.6-3.5 3.3-8.8 3.3zm10 9.6v80.3h-20.3v-80.3zm56.9 16.6h-14.1v63.7h-20.6v-63.7h-9.1v-16.6h9.1v-4.1q0-14.8 8.4-21.7 8.4-7 25.4-6.5v17.1q-7.4-0.2-10.3 2.4-2.9 2.6-2.9 9.4v3.4h14.1zm89.9-16.7l-49.7 118.3h-21.6l17.4-40-32.2-78.3h22.8l20.7 56.1 21-56.1z"/>
</svg>